<svg xmlns="http://www.w3.org/2000/svg" width="900pt" height="300pt" viewBox="0 0 900 300"><defs><clipPath id="clip-0" clipPathUnits="userSpaceOnUse"><rect x="0" y="0" width="900" height="300"/></clipPath></defs><g clip-path="url(#clip-0)"><rect id="item-0" x="0" y="0" width="900" height="300" fill="#ffffff" fill-opacity="1"/></g><defs><clipPath id="clip-1" clipPathUnits="userSpaceOnUse"><rect x="32.525001525878906" y="8" width="834.9499969482422" height="261.38000106811523"/></clipPath></defs><g clip-path="url(#clip-1)"><circle id="item-1" cx="50" cy="269.38000106811523" r="3" fill="#235a96" fill-opacity="1"/></g><defs><clipPath id="clip-2" clipPathUnits="userSpaceOnUse"><rect x="32.525001525878906" y="8" width="834.9499969482422" height="261.38000106811523"/></clipPath></defs><g clip-path="url(#clip-2)"><circle id="item-2" cx="100" cy="8" r="3" fill="#235a96" fill-opacity="1"/></g><defs><clipPath id="clip-3" clipPathUnits="userSpaceOnUse"><rect x="32.525001525878906" y="8" width="834.9499969482422" height="261.38000106811523"/></clipPath></defs><g clip-path="url(#clip-3)"><circle id="item-3" cx="150" cy="269.38000106811523" r="3" fill="#235a96" fill-opacity="1"/></g><g id="axis-4" class="axis" data-guide-id="0" data-guide-scope="[]"><defs><clipPath id="clip-4" clipPathUnits="userSpaceOnUse"><rect x="0" y="0" width="900" height="300"/></clipPath></defs><g clip-path="url(#clip-4)"><path id="item-4" class="domain" data-guide-role="domain" d="M 50.5 275.38000106811523 L 50.5 269.88000106811523 L 450.5 269.88000106811523 L 450.5 275.38000106811523 " fill="none" stroke="#373c41" stroke-width="1" stroke-opacity="1"/></g><g id="tick-5" class="tick" data-value="{&quot;Number&quot;:0.0}" data-occurrence="0" data-index="0" data-label="zero again" data-animation-id="0" opacity="1"><defs><clipPath id="clip-5" clipPathUnits="userSpaceOnUse"><rect x="0" y="0" width="900" height="300"/></clipPath></defs><g clip-path="url(#clip-5)"><line id="item-5" class="tick-line" data-guide-role="tick-line" data-label="zero again" x1="50.5" y1="269.38000106811523" x2="50.5" y2="275.38000106811523" stroke="#373c41" stroke-width="1" stroke-opacity="1"/></g><defs><clipPath id="clip-6" clipPathUnits="userSpaceOnUse"><rect x="0" y="0" width="900" height="300"/></clipPath></defs><g clip-path="url(#clip-6)"><g id="item-6" class="label" data-guide-role="label" data-label="zero again">
                    <path fill="#373c41" stroke="none" d="M 30.284998 285.48 L 26.364998 285.48 L 26.364998 284.90002 L 29.244999 280.80002 L 26.535 280.80002 L 26.535 280.12003 L 30.214998 280.12003 L 30.214998 280.78 L 27.374998 284.80002 L 30.284998 284.80002 Z M 33.594997 280.02002 Q 34.285 280.02002 34.78 280.32 Q 35.274998 280.62003 35.54 281.165 Q 35.805 281.71002 35.805 282.44 L 35.805 282.97 L 32.135 282.97 Q 32.155 283.88 32.6 284.355 Q 33.045 284.83002 33.844997 284.83002 Q 34.355 284.83002 34.75 284.73502 Q 35.145 284.64 35.565 284.46002 L 35.565 285.23 Q 35.155 285.41 34.754997 285.49503 Q 34.355 285.58002 33.805 285.58002 Q 33.045 285.58002 32.46 285.27002 Q 31.875 284.96002 31.549997 284.345 Q 31.224998 283.73 31.224998 282.84 Q 31.224998 281.96002 31.519997 281.33002 Q 31.814999 280.7 32.35 280.36002 Q 32.885 280.02002 33.594997 280.02002 Z M 33.585 280.74002 Q 32.954998 280.74002 32.59 281.14502 Q 32.225 281.55002 32.155 282.27002 L 34.885 282.27002 Q 34.875 281.59 34.565 281.165 Q 34.254997 280.74002 33.585 280.74002 Z M 39.664997 280.02002 Q 39.815 280.02002 39.989998 280.035 Q 40.164997 280.05002 40.295 280.08002 L 40.184998 280.89 Q 40.055 280.86002 39.899998 280.84 Q 39.745 280.82 39.605 280.82 Q 39.195 280.82 38.835 281.045 Q 38.475 281.27002 38.26 281.67502 Q 38.045 282.08002 38.045 282.62003 L 38.045 285.48 L 37.164997 285.48 L 37.164997 280.12003 L 37.885 280.12003 L 37.984997 281.1 L 38.024998 281.1 Q 38.285 280.66 38.695 280.34 Q 39.105 280.02002 39.664997 280.02002 Z M 45.754997 282.79 Q 45.754997 284.12003 45.079998 284.85 Q 44.405 285.58002 43.254997 285.58002 Q 42.545 285.58002 41.989998 285.255 Q 41.434998 284.93002 41.114998 284.30502 Q 40.795 283.68002 40.795 282.79 Q 40.795 281.46002 41.465 280.74002 Q 42.135 280.02002 43.285004 280.02002 Q 44.015003 280.02002 44.57 280.345 Q 45.125004 280.67 45.44 281.285 Q 45.754997 281.90002 45.754997 282.79 Z M 41.704998 282.79 Q 41.704998 283.74002 42.079998 284.295 Q 42.454998 284.85 43.274998 284.85 Q 44.084995 284.85 44.465 284.295 Q 44.845 283.74002 44.845 282.79 Q 44.845 281.84 44.465 281.30002 Q 44.084995 280.76 43.265 280.76 Q 42.445 280.76 42.074997 281.30002 Q 41.704998 281.84 41.704998 282.79 Z M 51.774998 280.03 Q 52.754993 280.03 53.225002 280.46002 Q 53.694996 280.89 53.694996 281.83002 L 53.694996 285.48 L 53.054996 285.48 L 52.885 284.72 L 52.845 284.72 Q 52.494995 285.16 52.109997 285.37003 Q 51.725 285.58002 51.045 285.58002 Q 50.31499 285.58002 49.835 285.195 Q 49.355 284.81 49.355 283.99002 Q 49.355 283.19 49.984997 282.755 Q 50.614998 282.32 51.924995 282.28 L 52.834995 282.25 L 52.834995 281.93002 Q 52.834995 281.26 52.545 281 Q 52.254997 280.74002 51.725 280.74002 Q 51.304996 280.74002 50.924995 280.86502 Q 50.545 280.99002 50.214993 281.15002 L 49.944996 280.49002 Q 50.295 280.30002 50.774998 280.165 Q 51.254997 280.03 51.774998 280.03 Z M 52.034996 282.89 Q 51.034996 282.93002 50.649998 283.21002 Q 50.264996 283.49002 50.264996 284 Q 50.264996 284.45 50.539997 284.66 Q 50.814995 284.87003 51.244995 284.87003 Q 51.924995 284.87003 52.374992 284.49503 Q 52.824997 284.12003 52.824997 283.34 L 52.824997 282.86002 Z M 57.254997 280.02002 Q 57.784996 280.02002 58.209995 280.22 Q 58.635 280.42 58.934998 280.83002 L 58.984997 280.83002 L 59.104992 280.12003 L 59.804993 280.12003 L 59.804993 285.57 Q 59.804993 286.72 59.219997 287.30002 Q 58.635 287.88 57.405 287.88 Q 56.225 287.88 55.475 287.54 L 55.475 286.73 Q 56.264996 287.15002 57.454998 287.15002 Q 58.144997 287.15002 58.539997 286.74503 Q 58.934998 286.34 58.934998 285.64 L 58.934998 285.43002 Q 58.934998 285.31 58.945 285.08502 Q 58.954998 284.86002 58.964996 284.77002 L 58.924995 284.77002 Q 58.385 285.58002 57.26499 285.58002 Q 56.225 285.58002 55.639996 284.85 Q 55.054996 284.12003 55.054996 282.81 Q 55.054996 281.53 55.639996 280.77502 Q 56.225 280.02002 57.254997 280.02002 Z M 57.374996 280.76 Q 56.704998 280.76 56.335003 281.295 Q 55.964996 281.83002 55.964996 282.82 Q 55.964996 283.81 56.329998 284.33502 Q 56.694992 284.86002 57.394997 284.86002 Q 58.204998 284.86002 58.574997 284.42502 Q 58.945 283.99002 58.945 283.02002 L 58.945 282.81 Q 58.945 281.71002 58.565 281.23502 Q 58.184998 280.76 57.374996 280.76 Z M 63.535 280.03 Q 64.515 280.03 64.985 280.46002 Q 65.455 280.89 65.455 281.83002 L 65.455 285.48 L 64.815 285.48 L 64.645 284.72 L 64.604996 284.72 Q 64.255 285.16 63.87 285.37003 Q 63.485 285.58002 62.805004 285.58002 Q 62.074997 285.58002 61.594997 285.195 Q 61.114998 284.81 61.114998 283.99002 Q 61.114998 283.19 61.745 282.755 Q 62.375 282.32 63.684998 282.28 L 64.595 282.25 L 64.595 281.93002 Q 64.595 281.26 64.305 281 Q 64.015 280.74002 63.485 280.74002 Q 63.065002 280.74002 62.685 280.86502 Q 62.305 280.99002 61.975 281.15002 L 61.704994 280.49002 Q 62.055 280.30002 62.535 280.165 Q 63.015 280.03 63.535 280.03 Z M 63.795002 282.89 Q 62.795 282.93002 62.41 283.21002 Q 62.024998 283.49002 62.024998 284 Q 62.024998 284.45 62.300003 284.66 Q 62.574997 284.87003 63.005 284.87003 Q 63.684998 284.87003 64.135 284.49503 Q 64.585 284.12003 64.585 283.34 L 64.585 282.86002 Z M 67.565 278.11002 Q 67.765 278.11002 67.92 278.24503 Q 68.075 278.38 68.075 278.67 Q 68.075 278.95 67.92 279.09 Q 67.765 279.23 67.565 279.23 Q 67.345 279.23 67.195 279.09 Q 67.045 278.95 67.045 278.67 Q 67.045 278.38 67.195 278.24503 Q 67.345 278.11002 67.565 278.11002 Z M 67.995 280.12003 L 67.995 285.48 L 67.115 285.48 L 67.115 280.12003 Z M 72.275 280.02002 Q 73.235 280.02002 73.725 280.48502 Q 74.215004 280.95 74.215004 281.99002 L 74.215004 285.48 L 73.345 285.48 L 73.345 282.05002 Q 73.345 280.76 72.145004 280.76 Q 71.255005 280.76 70.915 281.26 Q 70.575005 281.76 70.575005 282.7 L 70.575005 285.48 L 69.695 285.48 L 69.695 280.12003 L 70.405 280.12003 L 70.535 280.85 L 70.585 280.85 Q 70.845 280.43002 71.305 280.225 Q 71.765 280.02002 72.275 280.02002 Z"/>
                </g></g></g><g id="tick-7" class="tick" data-value="{&quot;Number&quot;:0.5}" data-occurrence="0" data-index="1" data-label="half" data-animation-id="1" opacity="0.25000075"><defs><clipPath id="clip-7" clipPathUnits="userSpaceOnUse"><rect x="0" y="0" width="900" height="300"/></clipPath></defs><g clip-path="url(#clip-7)"><line id="item-7" class="tick-line" data-guide-role="tick-line" data-label="half" x1="150.5" y1="269.38000106811523" x2="150.5" y2="275.38000106811523" stroke="#373c41" stroke-width="1" stroke-opacity="1"/></g><defs><clipPath id="clip-8" clipPathUnits="userSpaceOnUse"><rect x="0" y="0" width="900" height="300"/></clipPath></defs><g clip-path="url(#clip-8)"><g id="item-8" class="label" data-guide-role="label" data-label="half">
                    <path fill="#373c41" stroke="none" d="M 143.325 280.11002 Q 143.325 280.51 143.275 280.86002 L 143.335 280.86002 Q 143.595 280.45 144.04001 280.24002 Q 144.485 280.03 145.005 280.03 Q 145.985 280.03 146.475 280.49503 Q 146.965 280.96002 146.965 281.99002 L 146.965 285.48 L 146.095 285.48 L 146.095 282.05002 Q 146.095 280.76 144.895 280.76 Q 143.995 280.76 143.66 281.265 Q 143.325 281.77002 143.325 282.71002 L 143.325 285.48 L 142.445 285.48 L 142.445 277.88 L 143.325 277.88 Z M 150.655 280.03 Q 151.635 280.03 152.105 280.46002 Q 152.575 280.89 152.575 281.83002 L 152.575 285.48 L 151.935 285.48 L 151.765 284.72 L 151.72499 284.72 Q 151.375 285.16 150.98999 285.37003 Q 150.605 285.58002 149.92499 285.58002 Q 149.19499 285.58002 148.715 285.195 Q 148.235 284.81 148.235 283.99002 Q 148.235 283.19 148.86499 282.755 Q 149.495 282.32 150.805 282.28 L 151.715 282.25 L 151.715 281.93002 Q 151.715 281.26 151.42499 281 Q 151.135 280.74002 150.605 280.74002 Q 150.185 280.74002 149.805 280.86502 Q 149.42499 280.99002 149.095 281.15002 L 148.825 280.49002 Q 149.17499 280.30002 149.655 280.165 Q 150.135 280.03 150.655 280.03 Z M 150.915 282.89 Q 149.915 282.93002 149.53 283.21002 Q 149.14499 283.49002 149.14499 284 Q 149.14499 284.45 149.42 284.66 Q 149.69499 284.87003 150.125 284.87003 Q 150.805 284.87003 151.25499 284.49503 Q 151.70499 284.12003 151.70499 283.34 L 151.70499 282.86002 Z M 155.11499 285.48 L 154.235 285.48 L 154.235 277.88 L 155.11499 277.88 Z M 159.285 280.80002 L 157.935 280.80002 L 157.935 285.48 L 157.055 285.48 L 157.055 280.80002 L 156.11499 280.80002 L 156.11499 280.39 L 157.055 280.09 L 157.055 279.78 Q 157.055 278.74002 157.515 278.285 Q 157.97499 277.83002 158.795 277.83002 Q 159.11499 277.83002 159.37999 277.885 Q 159.64499 277.94 159.83499 278.01 L 159.605 278.7 Q 159.44499 278.65002 159.235 278.6 Q 159.025 278.55002 158.805 278.55002 Q 158.36499 278.55002 158.15 278.845 Q 157.935 279.14 157.935 279.77002 L 157.935 280.12003 L 159.285 280.12003 Z"/>
                </g></g></g><g id="tick-9" class="tick" data-value="{&quot;Number&quot;:1.0}" data-occurrence="0" data-index="1" data-label="ONE" data-animation-id="2" opacity="0.5000005"><defs><clipPath id="clip-9" clipPathUnits="userSpaceOnUse"><rect x="0" y="0" width="900" height="300"/></clipPath></defs><g clip-path="url(#clip-9)"><line id="item-9" class="tick-line" data-guide-role="tick-line" data-label="ONE" x1="250.5" y1="269.38000106811523" x2="250.5" y2="275.38000106811523" stroke="#373c41" stroke-width="1" stroke-opacity="1"/></g><defs><clipPath id="clip-10" clipPathUnits="userSpaceOnUse"><rect x="0" y="0" width="900" height="300"/></clipPath></defs><g clip-path="url(#clip-10)"><g id="item-10" class="label" data-guide-role="label" data-label="ONE">
                    <path fill="#373c41" stroke="none" d="M 247.215 281.90002 Q 247.215 283.01 246.84 283.83502 Q 246.465 284.66 245.735 285.12003 Q 245.005 285.58002 243.92502 285.58002 Q 242.815 285.58002 242.08002 285.12003 Q 241.345 284.66 240.985 283.83002 Q 240.62502 283 240.62502 281.89 Q 240.62502 280.79 240.985 279.97 Q 241.345 279.15002 242.08002 278.69 Q 242.815 278.23 243.93501 278.23 Q 245.005 278.23 245.735 278.685 Q 246.465 279.14 246.84 279.965 Q 247.215 280.79 247.215 281.90002 Z M 241.575 281.90002 Q 241.575 283.25 242.14502 284.02502 Q 242.715 284.80002 243.92502 284.80002 Q 245.145 284.80002 245.70502 284.02502 Q 246.265 283.25 246.265 281.90002 Q 246.265 280.55002 245.70502 279.785 Q 245.145 279.02002 243.93501 279.02002 Q 242.725 279.02002 242.15 279.785 Q 241.575 280.55002 241.575 281.90002 Z M 254.455 285.48 L 253.405 285.48 L 249.58499 279.55002 L 249.545 279.55002 Q 249.565 279.90002 249.595 280.42 Q 249.625 280.94 249.625 281.49002 L 249.625 285.48 L 248.795 285.48 L 248.795 278.34 L 249.83499 278.34 L 253.64499 284.25 L 253.685 284.25 Q 253.675 284.09 253.66 283.77002 Q 253.64499 283.45 253.62999 283.07 Q 253.61497 282.69 253.61497 282.37003 L 253.61497 278.34 L 254.455 278.34 Z M 260.385 285.48 L 256.395 285.48 L 256.395 278.34 L 260.385 278.34 L 260.385 279.13 L 257.295 279.13 L 257.295 281.36002 L 260.20502 281.36002 L 260.20502 282.14 L 257.295 282.14 L 257.295 284.69 L 260.385 284.69 Z"/>
                </g></g></g><g id="tick-11" class="tick" data-value="{&quot;Number&quot;:2.0}" data-occurrence="0" data-index="1" data-label="two again" data-animation-id="3" opacity="0.75000025"><defs><clipPath id="clip-11" clipPathUnits="userSpaceOnUse"><rect x="0" y="0" width="900" height="300"/></clipPath></defs><g clip-path="url(#clip-11)"><line id="item-11" class="tick-line" data-guide-role="tick-line" data-label="two again" x1="450.5" y1="269.38000106811523" x2="450.5" y2="275.38000106811523" stroke="#373c41" stroke-width="1" stroke-opacity="1"/></g><defs><clipPath id="clip-12" clipPathUnits="userSpaceOnUse"><rect x="0" y="0" width="900" height="300"/></clipPath></defs><g clip-path="url(#clip-12)"><g id="item-12" class="label" data-guide-role="label" data-label="two again">
                    <path fill="#373c41" stroke="none" d="M 430.01498 284.86002 Q 430.215 284.86002 430.42502 284.825 Q 430.635 284.79 430.765 284.75 L 430.765 285.42 Q 430.625 285.49002 430.365 285.535 Q 430.10504 285.58002 429.865 285.58002 Q 429.445 285.58002 429.09 285.435 Q 428.735 285.29 428.515 284.93002 Q 428.295 284.57 428.295 283.92 L 428.295 280.80002 L 427.535 280.80002 L 427.535 280.38 L 428.305 280.03 L 428.655 278.89 L 429.175 278.89 L 429.175 280.12003 L 430.725 280.12003 L 430.725 280.80002 L 429.175 280.80002 L 429.175 283.90002 Q 429.175 284.39 429.41 284.625 Q 429.64502 284.86002 430.01498 284.86002 Z M 435.29498 282.45 Q 435.16498 282.04 435.07 281.64502 Q 434.97498 281.25 434.925 281.03 L 434.88498 281.03 Q 434.84497 281.25 434.75497 281.64502 Q 434.66498 282.04 434.525 282.46002 L 433.56497 285.47 L 432.56497 285.47 L 431.095 280.11002 L 432.00494 280.11002 L 432.745 282.97 Q 432.855 283.40002 432.955 283.84 Q 433.055 284.28 433.09497 284.57 L 433.13495 284.57 Q 433.175 284.40002 433.22998 284.15002 Q 433.28494 283.90002 433.355 283.625 Q 433.425 283.35 433.495 283.13 L 434.44498 280.11002 L 435.405 280.11002 L 436.32495 283.13 Q 436.435 283.47 436.53998 283.87003 Q 436.645 284.27002 436.685 284.56 L 436.72498 284.56 Q 436.75497 284.31 436.86 283.87003 Q 436.965 283.43002 437.085 282.97 L 437.835 280.11002 L 438.735 280.11002 L 437.245 285.47 L 436.215 285.47 Z M 444.355 282.79 Q 444.355 284.12003 443.68 284.85 Q 443.005 285.58002 441.855 285.58002 Q 441.145 285.58002 440.59 285.255 Q 440.035 284.93002 439.71497 284.30502 Q 439.395 283.68002 439.395 282.79 Q 439.395 281.46002 440.06497 280.74002 Q 440.73502 280.02002 441.885 280.02002 Q 442.615 280.02002 443.16998 280.345 Q 443.725 280.67 444.04004 281.285 Q 444.355 281.90002 444.355 282.79 Z M 440.30502 282.79 Q 440.30502 283.74002 440.68 284.295 Q 441.055 284.85 441.875 284.85 Q 442.685 284.85 443.065 284.295 Q 443.445 283.74002 443.445 282.79 Q 443.445 281.84 443.065 281.30002 Q 442.685 280.76 441.86496 280.76 Q 441.04504 280.76 440.675 281.30002 Q 440.30502 281.84 440.30502 282.79 Z M 450.37497 280.03 Q 451.35498 280.03 451.82498 280.46002 Q 452.29498 280.89 452.29498 281.83002 L 452.29498 285.48 L 451.655 285.48 L 451.485 284.72 L 451.44504 284.72 Q 451.09503 285.16 450.71 285.37003 Q 450.32498 285.58002 449.645 285.58002 Q 448.915 285.58002 448.435 285.195 Q 447.955 284.81 447.955 283.99002 Q 447.955 283.19 448.585 282.755 Q 449.215 282.32 450.525 282.28 L 451.435 282.25 L 451.435 281.93002 Q 451.435 281.26 451.145 281 Q 450.85498 280.74002 450.32498 280.74002 Q 449.905 280.74002 449.525 280.86502 Q 449.145 280.99002 448.81503 281.15002 L 448.54498 280.49002 Q 448.895 280.30002 449.375 280.165 Q 449.855 280.03 450.37497 280.03 Z M 450.635 282.89 Q 449.635 282.93002 449.25003 283.21002 Q 448.865 283.49002 448.865 284 Q 448.865 284.45 449.13998 284.66 Q 449.415 284.87003 449.845 284.87003 Q 450.525 284.87003 450.975 284.49503 Q 451.425 284.12003 451.425 283.34 L 451.425 282.86002 Z M 455.855 280.02002 Q 456.385 280.02002 456.81 280.22 Q 457.23502 280.42 457.535 280.83002 L 457.58502 280.83002 L 457.70502 280.12003 L 458.405 280.12003 L 458.405 285.57 Q 458.405 286.72 457.82 287.30002 Q 457.23502 287.88 456.005 287.88 Q 454.825 287.88 454.075 287.54 L 454.075 286.73 Q 454.86502 287.15002 456.05502 287.15002 Q 456.74506 287.15002 457.14 286.74503 Q 457.535 286.34 457.535 285.64 L 457.535 285.43002 Q 457.535 285.31 457.54504 285.08502 Q 457.55502 284.86002 457.56503 284.77002 L 457.52505 284.77002 Q 456.98502 285.58002 455.86502 285.58002 Q 454.825 285.58002 454.24002 284.85 Q 453.65497 284.12003 453.65497 282.81 Q 453.65497 281.53 454.24002 280.77502 Q 454.825 280.02002 455.855 280.02002 Z M 455.975 280.76 Q 455.30502 280.76 454.93497 281.295 Q 454.56497 281.83002 454.56497 282.82 Q 454.56497 283.81 454.93002 284.33502 Q 455.295 284.86002 455.99503 284.86002 Q 456.805 284.86002 457.175 284.42502 Q 457.54504 283.99002 457.54504 283.02002 L 457.54504 282.81 Q 457.54504 281.71002 457.165 281.23502 Q 456.785 280.76 455.975 280.76 Z M 462.135 280.03 Q 463.115 280.03 463.585 280.46002 Q 464.05502 280.89 464.05502 281.83002 L 464.05502 285.48 L 463.415 285.48 L 463.245 284.72 L 463.20502 284.72 Q 462.855 285.16 462.47003 285.37003 Q 462.085 285.58002 461.40497 285.58002 Q 460.67502 285.58002 460.195 285.195 Q 459.715 284.81 459.715 283.99002 Q 459.715 283.19 460.345 282.755 Q 460.97504 282.32 462.285 282.28 L 463.195 282.25 L 463.195 281.93002 Q 463.195 281.26 462.90503 281 Q 462.615 280.74002 462.085 280.74002 Q 461.66498 280.74002 461.285 280.86502 Q 460.90497 280.99002 460.575 281.15002 L 460.305 280.49002 Q 460.655 280.30002 461.135 280.165 Q 461.615 280.03 462.135 280.03 Z M 462.39502 282.89 Q 461.39502 282.93002 461.01 283.21002 Q 460.62503 283.49002 460.62503 284 Q 460.62503 284.45 460.9 284.66 Q 461.17502 284.87003 461.60504 284.87003 Q 462.285 284.87003 462.73505 284.49503 Q 463.18497 284.12003 463.18497 283.34 L 463.18497 282.86002 Z M 466.16498 278.11002 Q 466.365 278.11002 466.52 278.24503 Q 466.675 278.38 466.675 278.67 Q 466.675 278.95 466.52 279.09 Q 466.365 279.23 466.16498 279.23 Q 465.94498 279.23 465.79498 279.09 Q 465.645 278.95 465.645 278.67 Q 465.645 278.38 465.79498 278.24503 Q 465.94498 278.11002 466.16498 278.11002 Z M 466.59503 280.12003 L 466.59503 285.48 L 465.715 285.48 L 465.715 280.12003 Z M 470.875 280.02002 Q 471.83502 280.02002 472.325 280.48502 Q 472.815 280.95 472.815 281.99002 L 472.815 285.48 L 471.945 285.48 L 471.945 282.05002 Q 471.945 280.76 470.745 280.76 Q 469.85504 280.76 469.515 281.26 Q 469.17502 281.76 469.17502 282.7 L 469.17502 285.48 L 468.295 285.48 L 468.295 280.12003 L 469.00504 280.12003 L 469.13498 280.85 L 469.185 280.85 Q 469.445 280.43002 469.905 280.225 Q 470.36502 280.02002 470.875 280.02002 Z"/>
                </g></g></g><g id="tick-13" class="tick" data-value="{&quot;Number&quot;:4.0}" data-occurrence="0" data-index="2" data-label="four" data-animation-id="4" opacity="0.5000005"><defs><clipPath id="clip-13" clipPathUnits="userSpaceOnUse"><rect x="0" y="0" width="900" height="300"/></clipPath></defs><g clip-path="url(#clip-13)"><line id="item-13" class="tick-line" data-guide-role="tick-line" data-label="four" x1="650.5" y1="269.38000106811523" x2="650.5" y2="275.38000106811523" stroke="#373c41" stroke-width="1" stroke-opacity="1"/></g><defs><clipPath id="clip-14" clipPathUnits="userSpaceOnUse"><rect x="0" y="0" width="900" height="300"/></clipPath></defs><g clip-path="url(#clip-14)"><g id="item-14" class="label" data-guide-role="label" data-label="four">
                    <path fill="#373c41" stroke="none" d="M 643.92 280.80002 L 642.56995 280.80002 L 642.56995 285.48 L 641.69 285.48 L 641.69 280.80002 L 640.75 280.80002 L 640.75 280.39 L 641.69 280.09 L 641.69 279.78 Q 641.69 278.74002 642.14996 278.285 Q 642.61 277.83002 643.43 277.83002 Q 643.75 277.83002 644.01495 277.885 Q 644.27997 277.94 644.47 278.01 L 644.24 278.7 Q 644.07996 278.65002 643.87 278.6 Q 643.66 278.55002 643.44 278.55002 Q 643 278.55002 642.785 278.845 Q 642.56995 279.14 642.56995 279.77002 L 642.56995 280.12003 L 643.92 280.12003 Z M 649.55 282.79 Q 649.55 284.12003 648.875 284.85 Q 648.19995 285.58002 647.05 285.58002 Q 646.33997 285.58002 645.785 285.255 Q 645.23 284.93002 644.91 284.30502 Q 644.58997 283.68002 644.58997 282.79 Q 644.58997 281.46002 645.25995 280.74002 Q 645.93 280.02002 647.07996 280.02002 Q 647.81 280.02002 648.365 280.345 Q 648.92 280.67 649.235 281.285 Q 649.55 281.90002 649.55 282.79 Z M 645.5 282.79 Q 645.5 283.74002 645.875 284.295 Q 646.25 284.85 647.07 284.85 Q 647.88 284.85 648.25995 284.295 Q 648.63995 283.74002 648.63995 282.79 Q 648.63995 281.84 648.25995 281.30002 Q 647.88 280.76 647.06 280.76 Q 646.24 280.76 645.87 281.30002 Q 645.5 281.84 645.5 282.79 Z M 655.42 280.12003 L 655.42 285.48 L 654.69995 285.48 L 654.56995 284.77002 L 654.52997 284.77002 Q 654.26996 285.19 653.80994 285.385 Q 653.35 285.58002 652.82996 285.58002 Q 651.86 285.58002 651.37 285.11502 Q 650.87994 284.65002 650.87994 283.63 L 650.87994 280.12003 L 651.76996 280.12003 L 651.76996 283.57 Q 651.76996 284.85 652.95996 284.85 Q 653.85 284.85 654.19495 284.35 Q 654.54 283.85 654.54 282.91 L 654.54 280.12003 Z M 659.61993 280.02002 Q 659.76996 280.02002 659.94495 280.035 Q 660.11993 280.05002 660.24994 280.08002 L 660.13995 280.89 Q 660.00995 280.86002 659.855 280.84 Q 659.69995 280.82 659.55994 280.82 Q 659.14996 280.82 658.79 281.045 Q 658.42993 281.27002 658.21497 281.67502 Q 657.99994 282.08002 657.99994 282.62003 L 657.99994 285.48 L 657.11993 285.48 L 657.11993 280.12003 L 657.83997 280.12003 L 657.93994 281.1 L 657.98 281.1 Q 658.2399 280.66 658.64996 280.34 Q 659.05994 280.02002 659.61993 280.02002 Z"/>
                </g></g></g></g></svg>