<svg xmlns="http://www.w3.org/2000/svg" width="360pt" height="240pt" viewBox="0 0 360 240">
    <defs>
        <clipPath id="clip-0">
            <path fill="#000000" stroke="none" d="M 0 0 L 360 0 L 360 240 L 0 240 Z"/>
        </clipPath>
        <clipPath id="clip-1">
            <path fill="#000000" stroke="none" d="M 43.23 30.81 L 328.94 30.81 L 328.94 194.38 L 43.23 194.38 Z"/>
        </clipPath>
        <clipPath id="clip-2">
            <path fill="#000000" stroke="none" d="M 43.23 30.81 L 328.94 30.81 L 328.94 194.38 L 43.23 194.38 Z"/>
        </clipPath>
        <clipPath id="clip-3">
            <path fill="#000000" stroke="none" d="M 43.23 30.81 L 328.94 30.81 L 328.94 194.38 L 43.23 194.38 Z"/>
        </clipPath>
        <clipPath id="clip-4">
            <path fill="#000000" stroke="none" d="M 43.23 30.81 L 328.94 30.81 L 328.94 194.38 L 43.23 194.38 Z"/>
        </clipPath>
        <clipPath id="clip-5">
            <path fill="#000000" stroke="none" d="M 0 0 L 360 0 L 360 240 L 0 240 Z"/>
        </clipPath>
        <clipPath id="clip-6">
            <path fill="#000000" stroke="none" d="M 0 0 L 360 0 L 360 240 L 0 240 Z"/>
        </clipPath>
        <clipPath id="clip-7">
            <path fill="#000000" stroke="none" d="M 0 0 L 360 0 L 360 240 L 0 240 Z"/>
        </clipPath>
        <clipPath id="clip-8">
            <path fill="#000000" stroke="none" d="M 0 0 L 360 0 L 360 240 L 0 240 Z"/>
        </clipPath>
        <clipPath id="clip-9">
            <path fill="#000000" stroke="none" d="M 0 0 L 360 0 L 360 240 L 0 240 Z"/>
        </clipPath>
        <clipPath id="clip-10">
            <path fill="#000000" stroke="none" d="M 0 0 L 360 0 L 360 240 L 0 240 Z"/>
        </clipPath>
        <clipPath id="clip-11">
            <path fill="#000000" stroke="none" d="M 0 0 L 360 0 L 360 240 L 0 240 Z"/>
        </clipPath>
        <clipPath id="clip-12">
            <path fill="#000000" stroke="none" d="M 0 0 L 360 0 L 360 240 L 0 240 Z"/>
        </clipPath>
        <clipPath id="clip-13">
            <path fill="#000000" stroke="none" d="M 0 0 L 360 0 L 360 240 L 0 240 Z"/>
        </clipPath>
        <clipPath id="clip-14">
            <path fill="#000000" stroke="none" d="M 0 0 L 360 0 L 360 240 L 0 240 Z"/>
        </clipPath>
        <clipPath id="clip-15">
            <path fill="#000000" stroke="none" d="M 0 0 L 360 0 L 360 240 L 0 240 Z"/>
        </clipPath>
        <clipPath id="clip-16">
            <path fill="#000000" stroke="none" d="M 0 0 L 360 0 L 360 240 L 0 240 Z"/>
        </clipPath>
        <clipPath id="clip-17">
            <path fill="#000000" stroke="none" d="M 0 0 L 360 0 L 360 240 L 0 240 Z"/>
        </clipPath>
        <clipPath id="clip-18">
            <path fill="#000000" stroke="none" d="M 0 0 L 360 0 L 360 240 L 0 240 Z"/>
        </clipPath>
        <clipPath id="clip-19">
            <path fill="#000000" stroke="none" d="M 0 0 L 360 0 L 360 240 L 0 240 Z"/>
        </clipPath>
        <clipPath id="clip-20">
            <path fill="#000000" stroke="none" d="M 0 0 L 360 0 L 360 240 L 0 240 Z"/>
        </clipPath>
        <clipPath id="clip-21">
            <path fill="#000000" stroke="none" d="M 0 0 L 360 0 L 360 240 L 0 240 Z"/>
        </clipPath>
        <clipPath id="clip-22">
            <path fill="#000000" stroke="none" d="M 0 0 L 360 0 L 360 240 L 0 240 Z"/>
        </clipPath>
        <clipPath id="clip-23">
            <path fill="#000000" stroke="none" d="M 0 0 L 360 0 L 360 240 L 0 240 Z"/>
        </clipPath>
        <clipPath id="clip-24">
            <path fill="#000000" stroke="none" d="M 0 0 L 360 0 L 360 240 L 0 240 Z"/>
        </clipPath>
        <clipPath id="clip-25">
            <path fill="#000000" stroke="none" d="M 0 0 L 360 0 L 360 240 L 0 240 Z"/>
        </clipPath>
        <clipPath id="clip-26">
            <path fill="#000000" stroke="none" d="M 0 0 L 360 0 L 360 240 L 0 240 Z"/>
        </clipPath>
        <clipPath id="clip-27">
            <path fill="#000000" stroke="none" d="M 0 0 L 360 0 L 360 240 L 0 240 Z"/>
        </clipPath>
        <clipPath id="clip-28">
            <path fill="#000000" stroke="none" d="M 0 0 L 360 0 L 360 240 L 0 240 Z"/>
        </clipPath>
    </defs>
    <g clip-path="url(#clip-0)">
        <path id="item-0" fill="#ffffff" stroke="none" d="M 0 0 L 360 0 L 360 240 L 0 240 Z"/>
    </g>
    <g clip-path="url(#clip-1)">
        <path id="item-1" fill="#b4c8d7" fill-opacity="0.54901963" stroke="none" d="M 43.23 79.881 L 328.94 79.881 L 328.94 112.59501 L 43.23 112.59501 Z"/>
    </g>
    <g clip-path="url(#clip-2)">
        <path id="item-2" fill="#b4c8d7" fill-opacity="0.54901963" stroke="none" d="M 43.23 30.81 L 328.94 30.81 L 328.94 79.881 L 43.23 79.881 Z"/>
    </g>
    <g clip-path="url(#clip-3)">
        <path id="item-3" fill="#b4c8d7" fill-opacity="0.54901963" stroke="none" d="M 43.23 112.59501 L 328.94 112.59501 L 328.94 128.952 L 43.23 128.952 Z"/>
    </g>
    <g clip-path="url(#clip-4)">
        <path id="item-4" fill="#b4c8d7" fill-opacity="0.54901963" stroke="none" d="M 43.23 128.952 L 328.94 128.952 L 328.94 194.38 L 43.23 194.38 Z"/>
    </g>
    <g clip-path="url(#clip-5)">
        <path id="item-5" fill="none" stroke="#373c41" d="M 43.23 194.38 L 328.94 194.38"/>
    </g>
    <g clip-path="url(#clip-6)">
        <path id="item-6" fill="none" stroke="#373c41" d="M 43.23 194.38 L 43.23 198.38"/>
    </g>
    <g clip-path="url(#clip-7)">
        <g id="item-7">
            <path fill="#373c41" stroke="none" d="M 45.6 209.49 Q 45.6 210.64001 45.36 211.46501 Q 45.12 212.29001 44.6 212.73003 Q 44.08 213.17001 43.219997 213.17001 Q 42.01 213.17001 41.434998 212.195 Q 40.86 211.22002 40.86 209.49 Q 40.86 208.33 41.094997 207.51001 Q 41.329998 206.69 41.85 206.255 Q 42.37 205.82 43.219997 205.82 Q 44.42 205.82 45.01 206.785 Q 45.6 207.75 45.6 209.49 Z M 41.739998 209.49 Q 41.739998 210.96002 42.074997 211.69 Q 42.41 212.42001 43.219997 212.42001 Q 44.02 212.42001 44.364998 211.695 Q 44.71 210.97002 44.71 209.49 Q 44.71 208.03003 44.364998 207.29999 Q 44.02 206.57 43.219997 206.57 Q 42.41 206.57 42.074997 207.29999 Q 41.739998 208.03003 41.739998 209.49 Z"/>
        </g>
    </g>
    <g clip-path="url(#clip-8)">
        <path id="item-8" fill="none" stroke="#373c41" d="M 100.372 194.38 L 100.372 198.38"/>
    </g>
    <g clip-path="url(#clip-9)">
        <g id="item-9">
            <path fill="#373c41" stroke="none" d="M 98.542 209.49 Q 98.542 210.64001 98.301994 211.46501 Q 98.062 212.29001 97.542 212.73003 Q 97.021996 213.17001 96.161995 213.17001 Q 94.951996 213.17001 94.377 212.195 Q 93.801994 211.22002 93.801994 209.49 Q 93.801994 208.33 94.036995 207.51001 Q 94.272 206.69 94.792 206.255 Q 95.312 205.82 96.161995 205.82 Q 97.362 205.82 97.952 206.785 Q 98.542 207.75 98.542 209.49 Z M 94.682 209.49 Q 94.682 210.96002 95.017 211.69 Q 95.35199 212.42001 96.161995 212.42001 Q 96.962 212.42001 97.307 211.695 Q 97.651985 210.97002 97.651985 209.49 Q 97.651985 208.03003 97.307 207.29999 Q 96.962 206.57 96.161995 206.57 Q 95.35199 206.57 95.017 207.29999 Q 94.682 208.03003 94.682 209.49 Z M 99.752 212.53001 Q 99.752 212.16 99.932 212.01001 Q 100.11199 211.86002 100.36201 211.86002 Q 100.622 211.86002 100.80701 212.01001 Q 100.992 212.16 100.992 212.53001 Q 100.992 212.89001 100.80701 213.05 Q 100.622 213.21 100.36201 213.21 Q 100.11199 213.21 99.932 213.05 Q 99.752 212.89001 99.752 212.53001 Z M 106.912 213.07 L 102.192 213.07 L 102.192 212.34001 L 104.062 210.45003 Q 104.602 209.91 104.972 209.49 Q 105.341995 209.06999 105.532 208.66501 Q 105.722 208.26001 105.722 207.78 Q 105.722 207.19 105.371994 206.88501 Q 105.021996 206.58 104.462 206.58 Q 103.942 206.58 103.54699 206.76003 Q 103.15201 206.94 102.742 207.26001 L 102.272 206.67001 Q 102.692 206.32 103.237 206.075 Q 103.782 205.83 104.462 205.83 Q 105.462 205.83 106.042 206.33499 Q 106.621994 206.84001 106.621994 207.73001 Q 106.621994 208.29002 106.392006 208.78003 Q 106.161995 209.27 105.752 209.74503 Q 105.341995 210.21999 104.792 210.76001 L 103.30199 212.23003 L 103.30199 212.27 L 106.912 212.27 Z"/>
        </g>
    </g>
    <g clip-path="url(#clip-10)">
        <path id="item-10" fill="none" stroke="#373c41" d="M 157.514 194.38 L 157.514 198.38"/>
    </g>
    <g clip-path="url(#clip-11)">
        <g id="item-11">
            <path fill="#373c41" stroke="none" d="M 155.68399 209.49 Q 155.68399 210.64001 155.444 211.46501 Q 155.204 212.29001 154.68399 212.73003 Q 154.164 213.17001 153.304 213.17001 Q 152.094 213.17001 151.519 212.195 Q 150.944 211.22002 150.944 209.49 Q 150.944 208.33 151.179 207.51001 Q 151.414 206.69 151.93399 206.255 Q 152.454 205.82 153.304 205.82 Q 154.504 205.82 155.094 206.785 Q 155.68399 207.75 155.68399 209.49 Z M 151.82399 209.49 Q 151.82399 210.96002 152.159 211.69 Q 152.49399 212.42001 153.304 212.42001 Q 154.10399 212.42001 154.44899 211.695 Q 154.79399 210.97002 154.79399 209.49 Q 154.79399 208.03003 154.44899 207.29999 Q 154.10399 206.57 153.304 206.57 Q 152.49399 206.57 152.159 207.29999 Q 151.82399 208.03003 151.82399 209.49 Z M 156.894 212.53001 Q 156.894 212.16 157.07399 212.01001 Q 157.254 211.86002 157.504 211.86002 Q 157.76399 211.86002 157.94899 212.01001 Q 158.134 212.16 158.134 212.53001 Q 158.134 212.89001 157.94899 213.05 Q 157.76399 213.21 157.504 213.21 Q 157.254 213.21 157.07399 213.05 Q 156.894 212.89001 156.894 212.53001 Z M 164.374 211.45003 L 163.33398 211.45003 L 163.33398 213.07 L 162.484 213.07 L 162.484 211.45003 L 159.064 211.45003 L 159.064 210.70003 L 162.424 205.89001 L 163.33398 205.89001 L 163.33398 210.66 L 164.374 210.66 Z M 162.484 208.41 Q 162.484 207.89003 162.50398 207.52501 Q 162.52399 207.16002 162.53398 206.83 L 162.49399 206.83 Q 162.41399 207.02 162.29399 207.24 Q 162.174 207.46 162.064 207.61 L 159.924 210.66 L 162.484 210.66 Z"/>
        </g>
    </g>
    <g clip-path="url(#clip-12)">
        <path id="item-12" fill="none" stroke="#373c41" d="M 214.656 194.38 L 214.656 198.38"/>
    </g>
    <g clip-path="url(#clip-13)">
        <g id="item-13">
            <path fill="#373c41" stroke="none" d="M 212.826 209.49 Q 212.826 210.64001 212.586 211.46501 Q 212.346 212.29001 211.82602 212.73003 Q 211.30603 213.17001 210.44601 213.17001 Q 209.23601 213.17001 208.66101 212.195 Q 208.08601 211.22002 208.08601 209.49 Q 208.08601 208.33 208.32103 207.51001 Q 208.55602 206.69 209.076 206.255 Q 209.59601 205.82 210.44601 205.82 Q 211.64601 205.82 212.23601 206.785 Q 212.826 207.75 212.826 209.49 Z M 208.966 209.49 Q 208.966 210.96002 209.30101 211.69 Q 209.636 212.42001 210.44601 212.42001 Q 211.246 212.42001 211.591 211.695 Q 211.936 210.97002 211.936 209.49 Q 211.936 208.03003 211.591 207.29999 Q 211.246 206.57 210.44601 206.57 Q 209.636 206.57 209.30101 207.29999 Q 208.966 208.03003 208.966 209.49 Z M 214.03601 212.53001 Q 214.03601 212.16 214.216 212.01001 Q 214.39601 211.86002 214.64601 211.86002 Q 214.906 211.86002 215.09099 212.01001 Q 215.27602 212.16 215.27602 212.53001 Q 215.27602 212.89001 215.09099 213.05 Q 214.906 213.21 214.64601 213.21 Q 214.39601 213.21 214.216 213.05 Q 214.03601 212.89001 214.03601 212.53001 Z M 216.54599 210.02 Q 216.54599 209.25 216.681 208.50499 Q 216.81601 207.76001 217.171 207.15501 Q 217.526 206.55 218.166 206.19 Q 218.806 205.83 219.81602 205.83 Q 220.026 205.83 220.28099 205.85 Q 220.536 205.87003 220.696 205.92001 L 220.696 206.67001 Q 220.516 206.61 220.29102 206.58 Q 220.06602 206.55 219.83601 206.55 Q 219.146 206.55 218.68602 206.78 Q 218.226 207.01001 217.961 207.41002 Q 217.69598 207.81001 217.576 208.33 Q 217.45601 208.85 217.426 209.44002 L 217.48601 209.44002 Q 217.716 209.09001 218.126 208.845 Q 218.536 208.6 219.176 208.6 Q 220.10599 208.6 220.676 209.16501 Q 221.24599 209.73001 221.24599 210.77 Q 221.24599 211.89001 220.631 212.53001 Q 220.016 213.17001 218.97598 213.17001 Q 218.296 213.17001 217.746 212.83 Q 217.19598 212.49002 216.87099 211.79001 Q 216.54599 211.09 216.54599 210.02 Z M 218.96599 212.43001 Q 219.59601 212.43001 219.98601 212.02501 Q 220.376 211.62001 220.376 210.77 Q 220.376 210.09001 220.03099 209.69 Q 219.686 209.29001 218.996 209.29001 Q 218.526 209.29001 218.176 209.485 Q 217.826 209.68001 217.63101 209.98001 Q 217.43599 210.28001 217.43599 210.59999 Q 217.43599 211.03001 217.606 211.455 Q 217.776 211.88 218.116 212.15503 Q 218.45601 212.43001 218.96599 212.43001 Z"/>
        </g>
    </g>
    <g clip-path="url(#clip-14)">
        <path id="item-14" fill="none" stroke="#373c41" d="M 271.798 194.38 L 271.798 198.38"/>
    </g>
    <g clip-path="url(#clip-15)">
        <g id="item-15">
            <path fill="#373c41" stroke="none" d="M 269.96802 209.49 Q 269.96802 210.64001 269.728 211.46501 Q 269.488 212.29001 268.96802 212.73003 Q 268.448 213.17001 267.588 213.17001 Q 266.37802 213.17001 265.803 212.195 Q 265.228 211.22002 265.228 209.49 Q 265.228 208.33 265.463 207.51001 Q 265.698 206.69 266.21802 206.255 Q 266.738 205.82 267.588 205.82 Q 268.788 205.82 269.37802 206.785 Q 269.96802 207.75 269.96802 209.49 Z M 266.108 209.49 Q 266.108 210.96002 266.443 211.69 Q 266.778 212.42001 267.588 212.42001 Q 268.388 212.42001 268.733 211.695 Q 269.078 210.97002 269.078 209.49 Q 269.078 208.03003 268.733 207.29999 Q 268.388 206.57 267.588 206.57 Q 266.778 206.57 266.443 207.29999 Q 266.108 208.03003 266.108 209.49 Z M 271.178 212.53001 Q 271.178 212.16 271.358 212.01001 Q 271.538 211.86002 271.788 211.86002 Q 272.048 211.86002 272.233 212.01001 Q 272.418 212.16 272.418 212.53001 Q 272.418 212.89001 272.233 213.05 Q 272.048 213.21 271.788 213.21 Q 271.538 213.21 271.358 213.05 Q 271.178 212.89001 271.178 212.53001 Z M 275.988 205.83 Q 276.928 205.83 277.528 206.27002 Q 278.128 206.71 278.128 207.54 Q 278.128 207.97 277.943 208.29002 Q 277.758 208.61 277.448 208.85503 Q 277.138 209.1 276.768 209.29001 Q 277.208 209.5 277.568 209.76501 Q 277.928 210.03001 278.143 210.38 Q 278.358 210.73001 278.358 211.22002 Q 278.358 212.12 277.723 212.645 Q 277.088 213.17001 276.018 213.17001 Q 274.868 213.17001 274.248 212.66502 Q 273.628 212.16 273.628 211.24998 Q 273.628 210.76001 273.833 210.40001 Q 274.038 210.04001 274.378 209.78001 Q 274.718 209.52 275.108 209.34001 Q 274.588 209.04001 274.223 208.61502 Q 273.858 208.18999 273.858 207.53 Q 273.858 206.98001 274.138 206.60501 Q 274.418 206.23001 274.898 206.03001 Q 275.378 205.83 275.988 205.83 Z M 275.978 206.54001 Q 275.428 206.54001 275.073 206.80501 Q 274.718 207.07 274.718 207.57 Q 274.718 207.93999 274.893 208.18999 Q 275.068 208.43999 275.368 208.61502 Q 275.668 208.79001 276.028 208.95001 Q 276.548 208.73001 276.903 208.42 Q 277.258 208.11 277.258 207.57 Q 277.258 207.07 276.908 206.80501 Q 276.558 206.54001 275.978 206.54001 Z M 274.488 211.26001 Q 274.488 211.78001 274.858 212.125 Q 275.228 212.47 275.998 212.47 Q 276.728 212.47 277.113 212.125 Q 277.498 211.78001 277.498 211.23 Q 277.498 210.71002 277.088 210.365 Q 276.678 210.02 275.998 209.76001 L 275.838 209.7 Q 275.178 209.98001 274.833 210.345 Q 274.488 210.71002 274.488 211.26001 Z"/>
        </g>
    </g>
    <g clip-path="url(#clip-16)">
        <path id="item-16" fill="none" stroke="#373c41" d="M 328.94 194.38 L 328.94 198.38"/>
    </g>
    <g clip-path="url(#clip-17)">
        <g id="item-17">
            <path fill="#373c41" stroke="none" d="M 329.62997 213.07 L 328.77 213.07 L 328.77 208.08 Q 328.77 207.65002 328.78 207.39003 Q 328.78998 207.13 328.81 206.85 Q 328.65 207.01001 328.52 207.12001 Q 328.38998 207.23001 328.18997 207.40002 L 327.43 208.02 L 326.97 207.43001 L 328.9 205.93001 L 329.62997 205.93001 Z"/>
        </g>
    </g>
    <g clip-path="url(#clip-18)">
        <path id="item-18" fill="none" stroke="#373c41" d="M 43.23 30.81 L 43.23 194.38"/>
    </g>
    <g clip-path="url(#clip-19)">
        <path id="item-19" fill="none" stroke="#373c41" d="M 43.23 47.167 L 39.23 47.167"/>
    </g>
    <g clip-path="url(#clip-20)">
        <g id="item-20">
            <path fill="#373c41" stroke="none" d="M 35.03 49.427002 L 33.99 49.427002 L 33.99 51.047 L 33.14 51.047 L 33.14 49.427002 L 29.72 49.427002 L 29.72 48.677002 L 33.08 43.867004 L 33.99 43.867004 L 33.99 48.637 L 35.03 48.637 Z M 33.14 46.387 Q 33.14 45.867004 33.16 45.502 Q 33.18 45.137005 33.19 44.807 L 33.15 44.807 Q 33.07 44.997 32.95 45.217003 Q 32.83 45.437 32.72 45.587 L 30.579998 48.637 L 33.14 48.637 Z"/>
        </g>
    </g>
    <g clip-path="url(#clip-21)">
        <path id="item-21" fill="none" stroke="#373c41" d="M 43.23 79.881 L 39.23 79.881"/>
    </g>
    <g clip-path="url(#clip-22)">
        <g id="item-22">
            <path fill="#373c41" stroke="none" d="M 34.71 83.761 L 29.99 83.761 L 29.99 83.031 L 31.86 81.141 Q 32.4 80.601 32.77 80.181 Q 33.14 79.761 33.33 79.356 Q 33.52 78.951004 33.52 78.471 Q 33.52 77.881004 33.17 77.576004 Q 32.82 77.271 32.260002 77.271 Q 31.739998 77.271 31.345 77.451004 Q 30.95 77.631004 30.54 77.951004 L 30.07 77.361 Q 30.49 77.011 31.035 76.766 Q 31.579998 76.521 32.260002 76.521 Q 33.260002 76.521 33.84 77.026 Q 34.42 77.531 34.42 78.421005 Q 34.42 78.981 34.19 79.471 Q 33.96 79.961 33.55 80.436005 Q 33.14 80.911 32.59 81.451004 L 31.1 82.921005 L 31.1 82.961 L 34.71 82.961 Z"/>
        </g>
    </g>
    <g clip-path="url(#clip-23)">
        <path id="item-23" fill="none" stroke="#373c41" d="M 43.23 112.59501 L 39.23 112.59501"/>
    </g>
    <g clip-path="url(#clip-24)">
        <g id="item-24">
            <path fill="#373c41" stroke="none" d="M 34.74 112.895 Q 34.74 114.045 34.5 114.869995 Q 34.260002 115.695 33.74 116.135 Q 33.22 116.575 32.36 116.575 Q 31.150002 116.575 30.575 115.6 Q 30 114.625 30 112.895 Q 30 111.735 30.235 110.915 Q 30.469997 110.095 30.99 109.659996 Q 31.51 109.225 32.36 109.225 Q 33.56 109.225 34.15 110.189995 Q 34.74 111.155 34.74 112.895 Z M 30.88 112.895 Q 30.88 114.365 31.214998 115.095 Q 31.549997 115.825 32.36 115.825 Q 33.16 115.825 33.505 115.1 Q 33.85 114.37501 33.85 112.895 Q 33.85 111.435 33.505 110.705 Q 33.16 109.975 32.36 109.975 Q 31.549997 109.975 31.214998 110.705 Q 30.88 111.435 30.88 112.895 Z"/>
        </g>
    </g>
    <g clip-path="url(#clip-25)">
        <path id="item-25" fill="none" stroke="#373c41" d="M 43.23 145.309 L 39.23 145.309"/>
    </g>
    <g clip-path="url(#clip-26)">
        <g id="item-26">
            <path fill="#373c41" stroke="none" d="M 24.499998 145.599 L 29.01 145.599 L 29.01 146.329 L 24.499998 146.329 Z M 34.71 149.189 L 29.99 149.189 L 29.99 148.459 L 31.86 146.569 Q 32.4 146.02899 32.77 145.609 Q 33.14 145.189 33.33 144.784 Q 33.52 144.379 33.52 143.899 Q 33.52 143.30899 33.17 143.004 Q 32.82 142.69899 32.260002 142.69899 Q 31.739998 142.69899 31.345 142.879 Q 30.95 143.05899 30.54 143.379 L 30.07 142.789 Q 30.49 142.439 31.035 142.194 Q 31.579998 141.94899 32.260002 141.94899 Q 33.260002 141.94899 33.84 142.454 Q 34.42 142.959 34.42 143.849 Q 34.42 144.409 34.19 144.899 Q 33.96 145.38899 33.55 145.864 Q 33.14 146.33899 32.59 146.879 L 31.1 148.349 L 31.1 148.38899 L 34.71 148.38899 Z"/>
        </g>
    </g>
    <g clip-path="url(#clip-27)">
        <path id="item-27" fill="none" stroke="#373c41" d="M 43.23 178.023 L 39.23 178.023"/>
    </g>
    <g clip-path="url(#clip-28)">
        <g id="item-28">
            <path fill="#373c41" stroke="none" d="M 24.499998 178.31302 L 29.01 178.31302 L 29.01 179.043 L 24.499998 179.043 Z M 35.03 180.283 L 33.99 180.283 L 33.99 181.90298 L 33.14 181.90298 L 33.14 180.283 L 29.72 180.283 L 29.72 179.533 L 33.08 174.723 L 33.99 174.723 L 33.99 179.49298 L 35.03 179.49298 Z M 33.14 177.243 Q 33.14 176.723 33.16 176.35802 Q 33.18 175.993 33.19 175.663 L 33.15 175.663 Q 33.07 175.853 32.95 176.073 Q 32.83 176.29301 32.72 176.44301 L 30.579998 179.49298 L 33.14 179.49298 Z"/>
        </g>
    </g>
</svg>
