<svg xmlns="http://www.w3.org/2000/svg" width="360pt" height="240pt" viewBox="0 0 360 240">
    <defs>
        <clipPath id="clip-0">
            <path fill="#000000" stroke="none" d="M 0 0 L 360 0 L 360 240 L 0 240 Z"/>
        </clipPath>
        <clipPath id="clip-1">
            <path fill="#000000" stroke="none" d="M 54.879993 30.81 L 333.14 30.81 L 333.14 194.38 L 54.879993 194.38 Z"/>
        </clipPath>
        <clipPath id="clip-2">
            <path fill="#000000" stroke="none" d="M 54.879993 30.81 L 333.14 30.81 L 333.14 194.38 L 54.879993 194.38 Z"/>
        </clipPath>
        <clipPath id="clip-3">
            <path fill="#000000" stroke="none" d="M 0 0 L 360 0 L 360 240 L 0 240 Z"/>
        </clipPath>
        <clipPath id="clip-4">
            <path fill="#000000" stroke="none" d="M 0 0 L 360 0 L 360 240 L 0 240 Z"/>
        </clipPath>
        <clipPath id="clip-5">
            <path fill="#000000" stroke="none" d="M 0 0 L 360 0 L 360 240 L 0 240 Z"/>
        </clipPath>
        <clipPath id="clip-6">
            <path fill="#000000" stroke="none" d="M 0 0 L 360 0 L 360 240 L 0 240 Z"/>
        </clipPath>
        <clipPath id="clip-7">
            <path fill="#000000" stroke="none" d="M 0 0 L 360 0 L 360 240 L 0 240 Z"/>
        </clipPath>
        <clipPath id="clip-8">
            <path fill="#000000" stroke="none" d="M 0 0 L 360 0 L 360 240 L 0 240 Z"/>
        </clipPath>
        <clipPath id="clip-9">
            <path fill="#000000" stroke="none" d="M 0 0 L 360 0 L 360 240 L 0 240 Z"/>
        </clipPath>
        <clipPath id="clip-10">
            <path fill="#000000" stroke="none" d="M 0 0 L 360 0 L 360 240 L 0 240 Z"/>
        </clipPath>
        <clipPath id="clip-11">
            <path fill="#000000" stroke="none" d="M 0 0 L 360 0 L 360 240 L 0 240 Z"/>
        </clipPath>
        <clipPath id="clip-12">
            <path fill="#000000" stroke="none" d="M 0 0 L 360 0 L 360 240 L 0 240 Z"/>
        </clipPath>
        <clipPath id="clip-13">
            <path fill="#000000" stroke="none" d="M 0 0 L 360 0 L 360 240 L 0 240 Z"/>
        </clipPath>
        <clipPath id="clip-14">
            <path fill="#000000" stroke="none" d="M 0 0 L 360 0 L 360 240 L 0 240 Z"/>
        </clipPath>
        <clipPath id="clip-15">
            <path fill="#000000" stroke="none" d="M 0 0 L 360 0 L 360 240 L 0 240 Z"/>
        </clipPath>
        <clipPath id="clip-16">
            <path fill="#000000" stroke="none" d="M 0 0 L 360 0 L 360 240 L 0 240 Z"/>
        </clipPath>
        <clipPath id="clip-17">
            <path fill="#000000" stroke="none" d="M 0 0 L 360 0 L 360 240 L 0 240 Z"/>
        </clipPath>
        <clipPath id="clip-18">
            <path fill="#000000" stroke="none" d="M 0 0 L 360 0 L 360 240 L 0 240 Z"/>
        </clipPath>
        <clipPath id="clip-19">
            <path fill="#000000" stroke="none" d="M 0 0 L 360 0 L 360 240 L 0 240 Z"/>
        </clipPath>
        <clipPath id="clip-20">
            <path fill="#000000" stroke="none" d="M 0 0 L 360 0 L 360 240 L 0 240 Z"/>
        </clipPath>
        <clipPath id="clip-21">
            <path fill="#000000" stroke="none" d="M 0 0 L 360 0 L 360 240 L 0 240 Z"/>
        </clipPath>
        <clipPath id="clip-22">
            <path fill="#000000" stroke="none" d="M 0 0 L 360 0 L 360 240 L 0 240 Z"/>
        </clipPath>
    </defs>
    <g clip-path="url(#clip-0)">
        <path id="item-0" fill="#ffffff" stroke="none" d="M 0 0 L 360 0 L 360 240 L 0 240 Z"/>
    </g>
    <g clip-path="url(#clip-1)">
        <path id="item-1" fill="none" stroke="#1e7db4" stroke-opacity="0.8235294" stroke-width="1.5" d="M 54.879993 194.38 L 124.445 139.85667"/>
    </g>
    <g clip-path="url(#clip-2)">
        <path id="item-2" fill="none" stroke="#1e7db4" stroke-opacity="0.8235294" stroke-width="1.5" d="M 263.575 85.333336 L 333.14 30.81"/>
    </g>
    <g clip-path="url(#clip-3)">
        <path id="item-3" fill="none" stroke="#373c41" d="M 54.879993 194.38 L 333.14 194.38"/>
    </g>
    <g clip-path="url(#clip-4)">
        <path id="item-4" fill="none" stroke="#373c41" d="M 54.879993 194.38 L 54.879993 198.38"/>
    </g>
    <g clip-path="url(#clip-5)">
        <g id="item-5">
            <path fill="#373c41" stroke="none" d="M 57.250004 209.49 Q 57.250004 210.64001 57.010002 211.46501 Q 56.77 212.29001 56.25 212.73003 Q 55.730003 213.17001 54.87 213.17001 Q 53.66 213.17001 53.085 212.195 Q 52.510002 211.22002 52.510002 209.49 Q 52.510002 208.33 52.745003 207.51001 Q 52.98 206.69 53.5 206.255 Q 54.02 205.82 54.87 205.82 Q 56.07 205.82 56.66 206.785 Q 57.250004 207.75 57.250004 209.49 Z M 53.39 209.49 Q 53.39 210.96002 53.725 211.69 Q 54.06 212.42001 54.87 212.42001 Q 55.670002 212.42001 56.015003 211.695 Q 56.360004 210.97002 56.360004 209.49 Q 56.360004 208.03003 56.015003 207.29999 Q 55.670002 206.57 54.87 206.57 Q 54.06 206.57 53.725 207.29999 Q 53.39 208.03003 53.39 209.49 Z"/>
        </g>
    </g>
    <g clip-path="url(#clip-6)">
        <path id="item-6" fill="none" stroke="#373c41" d="M 124.445 194.38 L 124.445 198.38"/>
    </g>
    <g clip-path="url(#clip-7)">
        <g id="item-7">
            <path fill="#373c41" stroke="none" d="M 125.135 213.07 L 124.27501 213.07 L 124.27501 208.08 Q 124.27501 207.65002 124.284996 207.39003 Q 124.29499 207.13 124.315 206.85 Q 124.15501 207.01001 124.02501 207.12001 Q 123.895 207.23001 123.695 207.40002 L 122.935 208.02 L 122.475 207.43001 L 124.405 205.93001 L 125.135 205.93001 Z"/>
        </g>
    </g>
    <g clip-path="url(#clip-8)">
        <path id="item-8" fill="none" stroke="#373c41" d="M 194.01 194.38 L 194.01 198.38"/>
    </g>
    <g clip-path="url(#clip-9)">
        <g id="item-9">
            <path fill="#373c41" stroke="none" d="M 196.34999 213.07 L 191.62999 213.07 L 191.62999 212.34001 L 193.5 210.45003 Q 194.04 209.91 194.40999 209.49 Q 194.78 209.06999 194.97002 208.66501 Q 195.15999 208.26001 195.15999 207.78 Q 195.15999 207.19 194.81 206.88501 Q 194.45999 206.58 193.9 206.58 Q 193.37999 206.58 192.985 206.76003 Q 192.58998 206.94 192.18 207.26001 L 191.70998 206.67001 Q 192.12999 206.32 192.67497 206.075 Q 193.22 205.83 193.9 205.83 Q 194.9 205.83 195.48 206.33499 Q 196.06 206.84001 196.06 207.73001 Q 196.06 208.29002 195.82999 208.78003 Q 195.59999 209.27 195.18999 209.74503 Q 194.78 210.21999 194.23001 210.76001 L 192.73999 212.23003 L 192.73999 212.27 L 196.34999 212.27 Z"/>
        </g>
    </g>
    <g clip-path="url(#clip-10)">
        <path id="item-10" fill="none" stroke="#373c41" d="M 263.575 194.38 L 263.575 198.38"/>
    </g>
    <g clip-path="url(#clip-11)">
        <g id="item-11">
            <path fill="#373c41" stroke="none" d="M 265.645 207.6 Q 265.645 208.32 265.245 208.745 Q 264.845 209.17003 264.165 209.31 L 264.165 209.35 Q 265.025 209.45 265.445 209.89001 Q 265.865 210.33002 265.865 211.04001 Q 265.865 211.66 265.57498 212.145 Q 265.285 212.62999 264.68 212.90001 Q 264.07498 213.17001 263.125 213.17001 Q 262.565 213.17001 262.085 213.085 Q 261.605 213 261.165 212.78001 L 261.165 211.96 Q 261.615 212.18001 262.135 212.305 Q 262.655 212.43001 263.135 212.43001 Q 264.095 212.43001 264.52 212.055 Q 264.945 211.68001 264.945 211.02 Q 264.945 210.34999 264.41998 210.05501 Q 263.895 209.76001 262.945 209.76001 L 262.255 209.76001 L 262.255 209.01001 L 262.955 209.01001 Q 263.835 209.01001 264.29 208.64001 Q 264.745 208.27 264.745 207.66002 Q 264.745 207.14003 264.395 206.85501 Q 264.04498 206.57 263.445 206.57 Q 262.865 206.57 262.455 206.74 Q 262.04498 206.91002 261.645 207.17001 L 261.205 206.57 Q 261.585 206.27002 262.15 206.05 Q 262.715 205.83 263.435 205.83 Q 264.555 205.83 265.1 206.33 Q 265.645 206.83 265.645 207.6 Z"/>
        </g>
    </g>
    <g clip-path="url(#clip-12)">
        <path id="item-12" fill="none" stroke="#373c41" d="M 333.14 194.38 L 333.14 198.38"/>
    </g>
    <g clip-path="url(#clip-13)">
        <g id="item-13">
            <path fill="#373c41" stroke="none" d="M 335.8 211.45003 L 334.76 211.45003 L 334.76 213.07 L 333.91 213.07 L 333.91 211.45003 L 330.49 211.45003 L 330.49 210.70003 L 333.85 205.89001 L 334.76 205.89001 L 334.76 210.66 L 335.8 210.66 Z M 333.91 208.41 Q 333.91 207.89003 333.93 207.52501 Q 333.95 207.16002 333.96 206.83 L 333.92 206.83 Q 333.84 207.02 333.72 207.24 Q 333.6 207.46 333.49 207.61 L 331.35 210.66 L 333.91 210.66 Z"/>
        </g>
    </g>
    <g clip-path="url(#clip-14)">
        <path id="item-14" fill="none" stroke="#373c41" d="M 54.879993 30.81 L 54.879993 194.38"/>
    </g>
    <g clip-path="url(#clip-15)">
        <path id="item-15" fill="none" stroke="#373c41" d="M 54.879993 30.81 L 50.879993 30.81"/>
    </g>
    <g clip-path="url(#clip-16)">
        <g id="item-16">
            <path fill="#373c41" stroke="none" d="M 27.549997 34.69 L 26.689999 34.69 L 26.689999 29.699999 Q 26.689999 29.269999 26.7 29.01 Q 26.709997 28.749998 26.73 28.469997 Q 26.57 28.629997 26.44 28.739998 Q 26.310001 28.849998 26.11 29.019999 L 25.35 29.64 L 24.89 29.05 L 26.819998 27.549997 L 27.549997 27.549997 Z M 34.95 31.109999 Q 34.95 32.26 34.71 33.085 Q 34.47 33.91 33.95 34.35 Q 33.43 34.789997 32.57 34.789997 Q 31.359997 34.789997 30.785002 33.815 Q 30.21 32.84 30.21 31.109999 Q 30.21 29.949999 30.445 29.13 Q 30.679996 28.310001 31.2 27.874998 Q 31.72 27.439997 32.57 27.439997 Q 33.77 27.439997 34.36 28.404999 Q 34.95 29.369999 34.95 31.109999 Z M 31.09 31.109999 Q 31.09 32.579998 31.425 33.309998 Q 31.759998 34.039997 32.57 34.039997 Q 33.37 34.039997 33.715 33.315 Q 34.059998 32.59 34.059998 31.109999 Q 34.059998 29.649998 33.715 28.919998 Q 33.37 28.189999 32.57 28.189999 Q 31.759998 28.189999 31.425 28.919998 Q 31.09 29.649998 31.09 31.109999 Z M 40.67 31.109999 Q 40.67 32.26 40.43 33.085 Q 40.19 33.91 39.67 34.35 Q 39.149998 34.789997 38.289997 34.789997 Q 37.079998 34.789997 36.504997 33.815 Q 35.93 32.84 35.93 31.109999 Q 35.93 29.949999 36.164997 29.13 Q 36.399998 28.310001 36.92 27.874998 Q 37.44 27.439997 38.289997 27.439997 Q 39.489998 27.439997 40.079998 28.404999 Q 40.67 29.369999 40.67 31.109999 Z M 36.809998 31.109999 Q 36.809998 32.579998 37.144997 33.309998 Q 37.48 34.039997 38.289997 34.039997 Q 39.09 34.039997 39.434998 33.315 Q 39.78 32.59 39.78 31.109999 Q 39.78 29.649998 39.434998 28.919998 Q 39.09 28.189999 38.289997 28.189999 Q 37.48 28.189999 37.144997 28.919998 Q 36.809998 29.649998 36.809998 31.109999 Z M 46.39 31.109999 Q 46.39 32.26 46.15 33.085 Q 45.91 33.91 45.39 34.35 Q 44.87 34.789997 44.01 34.789997 Q 42.8 34.789997 42.225 33.815 Q 41.65 32.84 41.65 31.109999 Q 41.65 29.949999 41.885 29.13 Q 42.12 28.310001 42.64 27.874998 Q 43.159996 27.439997 44.01 27.439997 Q 45.21 27.439997 45.8 28.404999 Q 46.39 29.369999 46.39 31.109999 Z M 42.53 31.109999 Q 42.53 32.579998 42.864998 33.309998 Q 43.2 34.039997 44.01 34.039997 Q 44.809998 34.039997 45.155 33.315 Q 45.5 32.59 45.5 31.109999 Q 45.5 29.649998 45.155 28.919998 Q 44.809998 28.189999 44.01 28.189999 Q 43.2 28.189999 42.864998 28.919998 Q 42.53 29.649998 42.53 31.109999 Z"/>
        </g>
    </g>
    <g clip-path="url(#clip-17)">
        <path id="item-17" fill="none" stroke="#373c41" d="M 54.879993 85.333336 L 50.879993 85.333336"/>
    </g>
    <g clip-path="url(#clip-18)">
        <g id="item-18">
            <path fill="#373c41" stroke="none" d="M 33.27 89.21334 L 32.41 89.21334 L 32.41 84.223335 Q 32.41 83.793335 32.42 83.53333 Q 32.43 83.27333 32.45 82.99333 Q 32.29 83.153336 32.16 83.263336 Q 32.03 83.37334 31.83 83.543335 L 31.07 84.16333 L 30.609999 83.57333 L 32.54 82.07333 L 33.27 82.07333 Z M 40.67 85.63333 Q 40.67 86.78333 40.43 87.60833 Q 40.19 88.433334 39.67 88.87334 Q 39.149998 89.31333 38.289997 89.31333 Q 37.079998 89.31333 36.504997 88.33833 Q 35.93 87.363335 35.93 85.63333 Q 35.93 84.473335 36.164997 83.653336 Q 36.399998 82.833336 36.92 82.39833 Q 37.44 81.96333 38.289997 81.96333 Q 39.489998 81.96333 40.079998 82.92833 Q 40.67 83.89333 40.67 85.63333 Z M 36.809998 85.63333 Q 36.809998 87.10333 37.144997 87.833336 Q 37.48 88.56333 38.289997 88.56333 Q 39.09 88.56333 39.434998 87.83833 Q 39.78 87.11334 39.78 85.63333 Q 39.78 84.17333 39.434998 83.44334 Q 39.09 82.71333 38.289997 82.71333 Q 37.48 82.71333 37.144997 83.44334 Q 36.809998 84.17333 36.809998 85.63333 Z M 46.39 85.63333 Q 46.39 86.78333 46.15 87.60833 Q 45.91 88.433334 45.39 88.87334 Q 44.87 89.31333 44.01 89.31333 Q 42.8 89.31333 42.225 88.33833 Q 41.65 87.363335 41.65 85.63333 Q 41.65 84.473335 41.885 83.653336 Q 42.12 82.833336 42.64 82.39833 Q 43.159996 81.96333 44.01 81.96333 Q 45.21 81.96333 45.8 82.92833 Q 46.39 83.89333 46.39 85.63333 Z M 42.53 85.63333 Q 42.53 87.10333 42.864998 87.833336 Q 43.2 88.56333 44.01 88.56333 Q 44.809998 88.56333 45.155 87.83833 Q 45.5 87.11334 45.5 85.63333 Q 45.5 84.17333 45.155 83.44334 Q 44.809998 82.71333 44.01 82.71333 Q 43.2 82.71333 42.864998 83.44334 Q 42.53 84.17333 42.53 85.63333 Z"/>
        </g>
    </g>
    <g clip-path="url(#clip-19)">
        <path id="item-19" fill="none" stroke="#373c41" d="M 54.879993 139.85667 L 50.879993 139.85667"/>
    </g>
    <g clip-path="url(#clip-20)">
        <g id="item-20">
            <path fill="#373c41" stroke="none" d="M 38.989998 143.73666 L 38.129997 143.73666 L 38.129997 138.74666 Q 38.129997 138.31667 38.14 138.05667 Q 38.149998 137.79666 38.17 137.51666 Q 38.01 137.67667 37.879997 137.78667 Q 37.75 137.89667 37.55 138.06667 L 36.789997 138.68666 L 36.329998 138.09666 L 38.26 136.59666 L 38.989998 136.59666 Z M 46.39 140.15666 Q 46.39 141.30667 46.15 142.13167 Q 45.91 142.95667 45.39 143.39667 Q 44.87 143.83667 44.01 143.83667 Q 42.8 143.83667 42.225 142.86166 Q 41.65 141.88666 41.65 140.15666 Q 41.65 138.99666 41.885 138.17667 Q 42.12 137.35666 42.64 136.92166 Q 43.159996 136.48666 44.01 136.48666 Q 45.21 136.48666 45.8 137.45166 Q 46.39 138.41666 46.39 140.15666 Z M 42.53 140.15666 Q 42.53 141.62666 42.864998 142.35666 Q 43.2 143.08667 44.01 143.08667 Q 44.809998 143.08667 45.155 142.36166 Q 45.5 141.63666 45.5 140.15666 Q 45.5 138.69667 45.155 137.96666 Q 44.809998 137.23666 44.01 137.23666 Q 43.2 137.23666 42.864998 137.96666 Q 42.53 138.69667 42.53 140.15666 Z"/>
        </g>
    </g>
    <g clip-path="url(#clip-21)">
        <path id="item-21" fill="none" stroke="#373c41" d="M 54.879993 194.38 L 50.879993 194.38"/>
    </g>
    <g clip-path="url(#clip-22)">
        <g id="item-22">
            <path fill="#373c41" stroke="none" d="M 44.71 198.26 L 43.85 198.26 L 43.85 193.26999 Q 43.85 192.83998 43.86 192.57999 Q 43.87 192.32 43.890003 192.04 Q 43.730003 192.19998 43.6 192.31001 Q 43.470005 192.42 43.27 192.58998 L 42.51 193.21 L 42.05 192.62 L 43.98 191.12 L 44.71 191.12 Z"/>
        </g>
    </g>
</svg>
